<?xml version="1.0" ?><svg image-rendering="optimizeQuality" shape-rendering="geometricPrecision" text-rendering="geometricPrecision" width="95%" height="95%" viewBox="0 0 500 500" xmlns="http://www.w3.org/2000/svg"><defs><mask id="gap"><rect x="100" y="100" width="40" height="50" fill="none" /></mask></defs><g><path d="M55 31h365l50 50v365c0 13-11 25-25 25h-390c-14 0-25-12-25-25v-390c0-14 11-25 25-25z" stroke="#FFF" fill="none" stroke-linejoin="round" stroke-width="10"/><path d="M110 31h280v125c0 8-7 15-15 15h-250c-8 0-15-7-15-15v-125z" stroke="#FFF" fill="#FFF" stroke-linejoin="round" stroke-width="10" /><rect height="221" stroke="#FFF" fill="none" stroke-linejoin="round" stroke-width="10" width="320" x="90" y="250"/><line fill="none" stroke="#FFF" stroke-linecap="round" stroke-width="15" x1="370" x2="130" y1="295" y2="295"/><line fill="none" stroke="#FFF" stroke-linecap="round" stroke-width="15" x1="370" x2="130" y1="335" y2="335"/><line fill="none" stroke="#FFF" stroke-linecap="round" stroke-width="15" x1="370" x2="130" y1="375" y2="375"/><line fill="none" stroke="#FFF" stroke-linecap="round" stroke-width="15" x1="370" x2="130" y1="415" y2="415"/></g></svg>